# xmcd
#
# Track frame offsets: 
#        150
#        21610
#        59654
#        101148
#        120423
#        167467
#        201742
#        220699
#
# Disc length: 3306 seconds
#
# Revision: 0
# Processed by: cddbd v1.5.2PL0 Copyright (c) Steve Scherf et al.
# Submitted via: ExactAudioCopy v1.0b3
#
DISCID=780ce808
DTITLE=Various Artist - The Krautrock and Progressive Box Set [CD 2) Th
DTITLE=e Unanswerable Passion Of The Strands
DYEAR=2016
DGENRE=Progressive Rock
TTITLE0=Van Der Graaf Generator - Lifetime
TTITLE1=Fission Trip - Santa Maria
TTITLE2=Brown's, Arthur Kingdom Come - Gypsy
TTITLE3=Audience - Heaven Was An Island
TTITLE4=Bedford, David - Great Equatorial Part III
TTITLE5=Third Ear Band - Gog And Magogs
TTITLE6=Mother Gong - The House Is Not The Same
TTITLE7=Heckstall-Smith, Dick - Where One Is
EXTD=
EXTT0=
EXTT1=
EXTT2=
EXTT3=
EXTT4=
EXTT5=
EXTT6=
EXTT7=
PLAYORDER=
